<mxfile host="app.diagrams.net" modified="2022-12-20T11:40:04.740Z" agent="5.0 (Windows NT 10.0; Win64; x64) AppleWebKit/537.36 (KHTML, like Gecko) Chrome/108.0.0.0 Safari/537.36" etag="vcZYJSakxpZi9Zn2umhv" version="20.7.4" type="github">
  <diagram id="-ph1VZeKFPuWezGYUxOl" name="第 1 页">
    <mxGraphModel dx="882" dy="540" grid="1" gridSize="10" guides="1" tooltips="1" connect="1" arrows="1" fold="1" page="1" pageScale="1" pageWidth="827" pageHeight="1169" math="0" shadow="0">
      <root>
        <mxCell id="0" />
        <mxCell id="1" parent="0" />
        <mxCell id="1zdQRvUmRYIISdl57qAJ-15" value="" style="rounded=0;whiteSpace=wrap;html=1;" parent="1" vertex="1">
          <mxGeometry x="90" y="110" width="280" height="390" as="geometry" />
        </mxCell>
        <mxCell id="1zdQRvUmRYIISdl57qAJ-19" style="edgeStyle=orthogonalEdgeStyle;rounded=0;orthogonalLoop=1;jettySize=auto;html=1;exitX=1;exitY=0.25;exitDx=0;exitDy=0;entryX=0;entryY=0.25;entryDx=0;entryDy=0;" parent="1" source="1zdQRvUmRYIISdl57qAJ-16" target="1zdQRvUmRYIISdl57qAJ-17" edge="1">
          <mxGeometry relative="1" as="geometry" />
        </mxCell>
        <mxCell id="1zdQRvUmRYIISdl57qAJ-20" style="edgeStyle=orthogonalEdgeStyle;rounded=0;orthogonalLoop=1;jettySize=auto;html=1;exitX=1;exitY=0.75;exitDx=0;exitDy=0;entryX=0;entryY=0.5;entryDx=0;entryDy=0;dashed=1;" parent="1" source="1zdQRvUmRYIISdl57qAJ-16" target="1zdQRvUmRYIISdl57qAJ-18" edge="1">
          <mxGeometry relative="1" as="geometry">
            <Array as="points">
              <mxPoint x="210" y="273" />
              <mxPoint x="210" y="320" />
            </Array>
          </mxGeometry>
        </mxCell>
        <mxCell id="1zdQRvUmRYIISdl57qAJ-16" value="挂载点信息" style="rounded=1;whiteSpace=wrap;html=1;" parent="1" vertex="1">
          <mxGeometry x="110" y="250" width="80" height="30" as="geometry" />
        </mxCell>
        <mxCell id="1zdQRvUmRYIISdl57qAJ-17" value="/ -&amp;gt; tmpfs" style="rounded=1;whiteSpace=wrap;html=1;" parent="1" vertex="1">
          <mxGeometry x="240" y="250" width="90" height="30" as="geometry" />
        </mxCell>
        <mxCell id="1zdQRvUmRYIISdl57qAJ-18" value="/fat -&amp;gt; fatfs" style="rounded=1;whiteSpace=wrap;html=1;dashed=1;" parent="1" vertex="1">
          <mxGeometry x="240" y="305" width="90" height="30" as="geometry" />
        </mxCell>
        <mxCell id="1zdQRvUmRYIISdl57qAJ-31" style="edgeStyle=orthogonalEdgeStyle;rounded=0;orthogonalLoop=1;jettySize=auto;html=1;exitX=1;exitY=0;exitDx=0;exitDy=0;entryX=0.021;entryY=0.15;entryDx=0;entryDy=0;dashed=1;entryPerimeter=0;" parent="1" source="1zdQRvUmRYIISdl57qAJ-21" target="1zdQRvUmRYIISdl57qAJ-22" edge="1">
          <mxGeometry relative="1" as="geometry">
            <Array as="points">
              <mxPoint x="380" y="365" />
              <mxPoint x="380" y="365" />
            </Array>
          </mxGeometry>
        </mxCell>
        <mxCell id="1zdQRvUmRYIISdl57qAJ-21" value="服务启动例程" style="rounded=0;whiteSpace=wrap;html=1;" parent="1" vertex="1">
          <mxGeometry x="110" y="365" width="240" height="30" as="geometry" />
        </mxCell>
        <mxCell id="1zdQRvUmRYIISdl57qAJ-22" value="fat32 文件系统服务" style="rounded=0;whiteSpace=wrap;html=1;" parent="1" vertex="1">
          <mxGeometry x="480" y="350" width="70" height="100" as="geometry" />
        </mxCell>
        <mxCell id="1zdQRvUmRYIISdl57qAJ-25" style="edgeStyle=orthogonalEdgeStyle;rounded=0;orthogonalLoop=1;jettySize=auto;html=1;exitX=0;exitY=0.5;exitDx=0;exitDy=0;entryX=0.998;entryY=0.094;entryDx=0;entryDy=0;entryPerimeter=0;" parent="1" source="1zdQRvUmRYIISdl57qAJ-23" edge="1">
          <mxGeometry relative="1" as="geometry">
            <mxPoint x="330.00000000000006" y="155.65999999999997" as="targetPoint" />
          </mxGeometry>
        </mxCell>
        <mxCell id="1zdQRvUmRYIISdl57qAJ-23" value="应用程序" style="rounded=0;whiteSpace=wrap;html=1;" parent="1" vertex="1">
          <mxGeometry x="470.56" y="140" width="80" height="30" as="geometry" />
        </mxCell>
        <mxCell id="1zdQRvUmRYIISdl57qAJ-33" style="edgeStyle=orthogonalEdgeStyle;rounded=0;orthogonalLoop=1;jettySize=auto;html=1;exitX=1;exitY=0;exitDx=0;exitDy=0;dashed=1;" parent="1" source="1zdQRvUmRYIISdl57qAJ-24" edge="1">
          <mxGeometry relative="1" as="geometry">
            <mxPoint x="480" y="430" as="targetPoint" />
            <Array as="points">
              <mxPoint x="480" y="430" />
            </Array>
          </mxGeometry>
        </mxCell>
        <mxCell id="1zdQRvUmRYIISdl57qAJ-24" value="初始化例程" style="rounded=0;whiteSpace=wrap;html=1;" parent="1" vertex="1">
          <mxGeometry x="110" y="430" width="240" height="30" as="geometry" />
        </mxCell>
        <mxCell id="1zdQRvUmRYIISdl57qAJ-26" value="mount sda1 /fat" style="text;html=1;strokeColor=none;fillColor=none;align=center;verticalAlign=middle;whiteSpace=wrap;rounded=0;" parent="1" vertex="1">
          <mxGeometry x="350.56" y="129" width="106" height="30" as="geometry" />
        </mxCell>
        <mxCell id="1zdQRvUmRYIISdl57qAJ-29" style="edgeStyle=orthogonalEdgeStyle;rounded=0;orthogonalLoop=1;jettySize=auto;html=1;exitX=1;exitY=0.5;exitDx=0;exitDy=0;entryX=0.5;entryY=0;entryDx=0;entryDy=0;" parent="1" source="1zdQRvUmRYIISdl57qAJ-28" target="1zdQRvUmRYIISdl57qAJ-16" edge="1">
          <mxGeometry relative="1" as="geometry" />
        </mxCell>
        <mxCell id="1zdQRvUmRYIISdl57qAJ-28" value="挂载请求处理函数" style="rounded=0;whiteSpace=wrap;html=1;" parent="1" vertex="1">
          <mxGeometry x="110" y="130" width="120" height="40" as="geometry" />
        </mxCell>
        <mxCell id="1zdQRvUmRYIISdl57qAJ-30" value="识别sda1为fat32分区" style="text;html=1;strokeColor=none;fillColor=none;align=center;verticalAlign=middle;whiteSpace=wrap;rounded=0;" parent="1" vertex="1">
          <mxGeometry x="250" y="170" width="90" height="30" as="geometry" />
        </mxCell>
        <mxCell id="1zdQRvUmRYIISdl57qAJ-32" value="启动服务进程" style="text;html=1;strokeColor=none;fillColor=none;align=center;verticalAlign=middle;whiteSpace=wrap;rounded=0;dashed=1;" parent="1" vertex="1">
          <mxGeometry x="359" y="334" width="110" height="30" as="geometry" />
        </mxCell>
        <mxCell id="1zdQRvUmRYIISdl57qAJ-34" value="初始化请求" style="text;html=1;strokeColor=none;fillColor=none;align=center;verticalAlign=middle;whiteSpace=wrap;rounded=0;dashed=1;" parent="1" vertex="1">
          <mxGeometry x="374" y="399" width="80" height="30" as="geometry" />
        </mxCell>
      </root>
    </mxGraphModel>
  </diagram>
</mxfile>
